<svg width="16" height="16" viewBox="0 0 16 16" fill="none" xmlns="http://www.w3.org/2000/svg">
<g clip-path="url(#clip0_440_50)">
<path d="M8.00007 13.9895C4.6984 13.9895 2.01061 11.3017 2.01061 8.00008C2.01061 4.69841 4.6984 2.01062 8.00007 2.01062C11.3017 2.01062 13.9895 4.69841 13.9895 8.00008C13.9895 11.3017 11.3017 13.9895 8.00007 13.9895Z" stroke="#292929" stroke-width="1.4" stroke-miterlimit="10"/>
<path d="M5.61419 4.6363C6.061 4.6363 6.4235 4.9988 6.4235 5.44561C6.4235 5.89242 6.061 6.25492 5.61419 6.25492C5.16738 6.25492 4.80487 5.89242 4.80487 5.44561C4.80487 4.9988 5.16527 4.6363 5.61419 4.6363ZM4.91447 6.87033H6.3118V11.3637H4.91447V6.87033Z" fill="#292929"/>
<path d="M7.1886 6.87034H8.52903V7.48575H8.54799C8.73346 7.13168 9.19081 6.76074 9.86945 6.76074C11.2836 6.76074 11.545 7.69019 11.545 8.89994V11.3637H10.1477V9.17814C10.1477 8.65756 10.1392 7.98525 9.42264 7.98525C8.69553 7.98525 8.58593 8.55429 8.58593 9.1402V11.3637H7.1886V6.87034Z" fill="#292929"/>
</g>
<defs>
<clipPath id="clip0_440_50">
<rect width="13.4" height="13.4" fill="white" transform="translate(1.29999 1.3)"/>
</clipPath>
</defs>
</svg>
