<svg id="bb402cc8-a42d-436e-8c50-9d47345621db" data-name="圖層 1" xmlns="http://www.w3.org/2000/svg" viewBox="0 0 380 580"><defs><style>.\30 3c8e752-8927-48ce-93a1-fafe317e8067{fill:#ef0a4c;}.bd5078c2-356a-4b34-9f29-6a793f155929{fill:#202c59;}</style></defs><title>logo</title><path class="03c8e752-8927-48ce-93a1-fafe317e8067" d="M-411.37-462.3a27.67,27.67,0,0,1-6.31-.74A190.88,190.88,0,0,1-522.3-529.21,187.93,187.93,0,0,1-564-648c0-104.77,85.23-190,190-190h.34C-269.13-837.82-184-752.63-184-648.09A190.23,190.23,0,0,1-201.64-568a210.79,210.79,0,0,0-124.28-84.49,47.53,47.53,0,0,0-10.79-1.25A47.5,47.5,0,0,0-384-606.12v116.24A27.51,27.51,0,0,1-411.37-462.3Z" transform="translate(564 838)"/><path class="bd5078c2-356a-4b34-9f29-6a793f155929" d="M-374.34-258c-104.53-.18-189.61-85.37-189.66-189.91A190.23,190.23,0,0,1-546.36-528a210.79,210.79,0,0,0,124.28,84.49,47.53,47.53,0,0,0,10.79,1.25A47.5,47.5,0,0,0-364-489.88V-606.12a27.51,27.51,0,0,1,27.37-27.58,27.67,27.67,0,0,1,6.31.74A190.88,190.88,0,0,1-225.7-566.79,187.93,187.93,0,0,1-184-448c0,104.77-85.23,190-190,190Z" transform="translate(564 838)"/></svg>