<svg width="16" height="16" viewBox="0 0 16 16" fill="none" xmlns="http://www.w3.org/2000/svg">
<path d="M13.3333 13.3333H2.66665C2.31302 13.3333 1.97389 13.1929 1.72384 12.9428C1.47379 12.6928 1.33331 12.3536 1.33331 12V3.942C1.34827 3.59853 1.49532 3.27411 1.74377 3.03647C1.99221 2.79883 2.32285 2.66634 2.66665 2.66667H13.3333C13.6869 2.66667 14.0261 2.80714 14.2761 3.05719C14.5262 3.30724 14.6666 3.64638 14.6666 4V12C14.6666 12.3536 14.5262 12.6928 14.2761 12.9428C14.0261 13.1929 13.6869 13.3333 13.3333 13.3333ZM2.66665 5.24534V12H13.3333V5.24534L7.99998 8.8L2.66665 5.24534ZM3.19998 4L7.99998 7.2L12.8 4H3.19998Z" fill="#292929"/>
</svg>
