<svg width="16" height="16" viewBox="0 0 16 16" fill="none" xmlns="http://www.w3.org/2000/svg">
<path d="M7.06022 4.25664L4.86128 1.7184C4.60778 1.4259 4.14304 1.4272 3.84859 1.7223L2.0403 3.53384C1.5021 4.07269 1.34805 4.87284 1.6594 5.51438C3.51944 9.36559 6.6254 12.4759 10.474 14.3413C11.1149 14.6527 11.9144 14.4986 12.4526 13.9598L14.2778 12.1313C14.5735 11.8356 14.5742 11.3682 14.2791 11.1148L11.7311 8.92751C11.4646 8.69871 11.0505 8.72861 10.7834 8.99641L9.89681 9.88431C9.85142 9.93188 9.79167 9.96324 9.72673 9.97357C9.6618 9.9839 9.59527 9.97264 9.53736 9.94151C8.08815 9.10698 6.88602 7.90327 6.05338 6.45298C6.02219 6.39497 6.0109 6.32833 6.02124 6.26328C6.03157 6.19823 6.06295 6.13837 6.11058 6.09288L6.99457 5.20823C7.26237 4.93914 7.29162 4.52314 7.06022 4.25599V4.25664Z" stroke="#292929" stroke-width="1.4" stroke-linecap="round" stroke-linejoin="round"/>
</svg>
