<svg width="16" height="16" viewBox="0 0 16 16" fill="none" xmlns="http://www.w3.org/2000/svg">
<path d="M10.9067 9.3333C10.96 8.8933 11 8.4533 11 7.99997C11 7.54663 10.96 7.10663 10.9067 6.66663H13.16C13.2667 7.0933 13.3334 7.53997 13.3334 7.99997C13.3334 8.45997 13.2667 8.90663 13.16 9.3333H10.9067ZM9.72671 13.04C10.1267 12.3 10.4334 11.5 10.6467 10.6666H12.6134C11.9675 11.7788 10.9428 12.6213 9.72671 13.04V13.04ZM9.56004 9.3333H6.44004C6.37337 8.8933 6.33337 8.4533 6.33337 7.99997C6.33337 7.54663 6.37337 7.09997 6.44004 6.66663H9.56004C9.62004 7.09997 9.66671 7.54663 9.66671 7.99997C9.66671 8.4533 9.62004 8.8933 9.56004 9.3333ZM8.00004 13.3066C7.44671 12.5066 7.00004 11.62 6.72671 10.6666H9.27337C9.00004 11.62 8.55337 12.5066 8.00004 13.3066ZM5.33337 5.3333H3.38671C4.02594 4.21811 5.0499 3.37429 6.26671 2.95997C5.86671 3.69997 5.56671 4.49997 5.33337 5.3333ZM3.38671 10.6666H5.33337C5.56671 11.5 5.86671 12.3 6.26671 13.04C5.05246 12.6211 4.02994 11.7784 3.38671 10.6666V10.6666ZM2.84004 9.3333C2.73337 8.90663 2.66671 8.45997 2.66671 7.99997C2.66671 7.53997 2.73337 7.0933 2.84004 6.66663H5.09337C5.04004 7.10663 5.00004 7.54663 5.00004 7.99997C5.00004 8.4533 5.04004 8.8933 5.09337 9.3333H2.84004ZM8.00004 2.68663C8.55337 3.48663 9.00004 4.37997 9.27337 5.3333H6.72671C7.00004 4.37997 7.44671 3.48663 8.00004 2.68663V2.68663ZM12.6134 5.3333H10.6467C10.4381 4.50761 10.1291 3.71056 9.72671 2.95997C10.9534 3.37997 11.9734 4.22663 12.6134 5.3333ZM8.00004 1.3333C4.31337 1.3333 1.33337 4.3333 1.33337 7.99997C1.33337 9.76808 2.03575 11.4638 3.286 12.714C3.90505 13.3331 4.63998 13.8241 5.44882 14.1592C6.25766 14.4942 7.12456 14.6666 8.00004 14.6666C9.76815 14.6666 11.4638 13.9643 12.7141 12.714C13.9643 11.4638 14.6667 9.76808 14.6667 7.99997C14.6667 7.12449 14.4943 6.25758 14.1592 5.44874C13.8242 4.63991 13.3331 3.90498 12.7141 3.28592C12.095 2.66686 11.3601 2.1758 10.5513 1.84077C9.74243 1.50574 8.87552 1.3333 8.00004 1.3333V1.3333Z" fill="#292929"/>
</svg>
